<?xml version="1.0" encoding="UTF-8"?><svg id="Layer_1" xmlns="http://www.w3.org/2000/svg" width="520" height="520" viewBox="0 0 520 520"><defs><style>.cls-1{opacity:.1;}.cls-1,.cls-2,.cls-3{fill:#231f20;stroke-width:0px;}.cls-2{opacity:.15;}</style></defs><path class="cls-3" d="M239.87,197.29c.33-1.09.65-2.18.93-3.29.1-.4.17-.81.28-1.21.39-1.42.76-2.84,1.05-4.29.13-.64.22-1.29.3-1.93.07-.41.14-.82.21-1.23.07-.41.15-.82.33-1.22.1-.25.08-.22.14,0,.03.11.09.28.18.48.07.2.1.42.11.67l.02,1.3c0,.43-.07.86-.12,1.28-.1.85-.24,1.7-.43,2.55-.23,1.01-.33,2.08-.52,3.12-.22,1.14-.51,2.27-.79,3.4l-.55,2.07c-.28,1.05-.6,2.09-.86,3.13-.23.8-.36,1.62-.57,2.42-.04.18-.07.35-.13.53-.23.64-.4.81-.8.84-.09,0-.18.02-.27.01-.28-.02-.43-.36-.4-.87.05-.75.18-1.49.31-2.24.13-.75.3-1.5.53-2.23.32-1.1.64-2.2.97-3.3h.04Z"/><path class="cls-3" d="M67.74,451.11s-7.84.8-6.41,2.69c1.49,1.97,18.07,1.97,18.07,1.97l-11.66-4.66Z"/><path class="cls-3" d="M152.18,446.02c-.11-.14-6.31,1.66-5.97,2.91.81,3.05,19.57,1.38,19.57,1.38l-10.96-1.74-2.64-2.56Z"/><path class="cls-3" d="M326.02,429.82l-4.93-.24-1.8-.08c-2.11-.15-4.21-.3-6.32-.45-.93-.07-1.87-.12-2.8-.21-1.19-.1-2.38-.23-3.56-.38-.37-.05-.32-.05,0-.06.32,0,.9-.05,1.59-.05,1.22,0,2.44-.04,3.66.02,1.21.06,2.42.12,3.66.19,1.46.1,2.99.08,4.49.11l4.95.06h3.04c1.54.01,3.08.01,4.61-.05,1.18-.05,2.34-.18,3.51-.28l.77-.08c.96-.05,1.27.02,1.5.31.05.07.12.13.15.2.1.22-.28.44-.98.55-2.09.33-4.31.42-6.54.47-1.66.03-3.32.03-4.98,0v-.03Z"/><path class="cls-3" d="M296.19,423.22s-18.12-.45-16.51,3.13c1.41,3.15,43.61,2.67,43.61,2.67l-27.1-5.8Z"/><path class="cls-3" d="M335.03,276.65c.09-.35.25-.7.37-1.04.04-.13.05-.26.1-.38.17-.43.35-.88.52-1.3.07-.19.11-.39.15-.58.05-.25.07-.51.23-.73.09-.14.78.23.79.52-.02.51-.07,1.01-.25,1.49-.12.29-.08.61-.11.92-.05.33-.09.68-.14,1.01-.04.21-.08.42-.1.62-.04.32-.09.64-.07.95.02.25.16.49.24.73.01.05.04.1.04.16,0,.2-.11.26-.59.31l-.29.03c-.3.03-.67-.05-.78-.2-.44-.45-.36-.95-.34-1.44.04-.36.12-.72.19-1.08h.04Z"/><path class="cls-1" d="M204.11,279.57l131.88-.89-.86-128.18c73.46,0,133.01,59.94,133.01,132.65s-60.55,131.65-134.01,131.65-134.22-59.77-130.02-135.23Z"/><path class="cls-2" d="M468.14,283.16c0,43.72-21.53,82.46-54.68,106.41l-77.47-110.88-.86-128.18c73.46,0,133.01,59.94,133.01,132.65Z"/><path class="cls-3" d="M69.81,436.36c.81-.24,1.6-.36,2.37-.43.28-.02.55-.11.83-.11.99-.04,1.96.17,2.89.36.41.1.83.18,1.23.29.52.13,1.04.3,1.48.65.14.1.07.17-.1.25-.17.07-.46.19-.74.22-.5.04-.99.11-1.48.18-.48.09-.96.04-1.45,0-.59-.04-1.18.1-1.77.19-.64.09-1.28.21-1.89.4-.37.13-.74.25-1.07.42-.51.25-.98.6-1.34,1.08-.26.38-.41.83-.58,1.26-.04.1-.06.2-.1.29-.2.33-.4.37-.9.23-.11-.03-.23-.06-.34-.1-.36-.13-.59-.42-.6-.79-.01-1.07.44-2.14,1.3-2.99.62-.65,1.46-1.13,2.23-1.45l.03.05Z"/><path class="cls-3" d="M151.99,436.72c.33-.41.79-.77,1.22-.99.43-.23.86-.38,1.26-.51.29-.09.56-.22.85-.3,1.03-.27,2.07-.4,3.09-.57.45-.07.89-.19,1.34-.27.57-.09,1.15-.18,1.74-.16.18,0,.19.12.07.31-.12.18-.34.46-.65.61-1.07.61-2.2.81-3.34,1.02-.69.11-1.34.43-2,.66-.74.26-1.43.5-1.89.91-.28.25-.52.59-.71,1-.29.62-.56,1.31-.69,2.01-.09.55-.06,1.1-.07,1.63,0,.12.02.24.01.35-.03.44-.15.57-.62.65-.11.02-.21.05-.32.06-.35.04-.65-.17-.75-.54-.15-.55-.21-1.12-.19-1.7.06-.57.2-1.14.37-1.7.28-.82.59-1.62,1.24-2.49l.04.02Z"/><path class="cls-3" d="M87.85,259.04l-12.86,39.31s-18.23,67.71-21.97,92.27c-1.88,12.34-4.66,28.46-4.68,31.6-.02,3.14-.51,9.19,4.16,10.51,4.67,1.31,23.24,3.56,32.94,3.47s25.16.92,24.97-.7c-.19-1.61,4.67-31.15,4.67-31.15l6.29-56.62,13.89,63.78s1.97,19.11,4.27,21.07c2.3,1.96,16.24,2.56,22.12,1.53s25.46-7.21,27.2-8.84c1.74-1.63,3.13-5.01,3.13-5.01l-12.93-53.5-21.07-74.01-9.35-38.05-17.6,2.92-31.06,1.41h-12.11Z"/><path class="cls-3" d="M221.91,210.84c.09.57.22,1.14.37,1.75.05.22.16.43.2.66.14.82.3,1.66.31,2.53.02.39.03.76.04,1.14,0,.49-.12.99-.37,1.41-.08.13-.19.08-.34-.06-.14-.15-.37-.39-.46-.62-.07-.21-.17-.41-.25-.6-.05-.19-.1-.38-.16-.58-.11-.39-.21-.78-.22-1.22-.03-.53-.32-1.02-.51-1.54-.21-.57-.38-1.18-.55-1.82-.1-.39-.19-.78-.27-1.18-.13-.61-.18-1.23-.25-1.86-.06-.49-.17-1-.15-1.54,0-.12-.01-.24.02-.36.04-.22.13-.35.29-.4.15-.05.34-.04.6.03.12.03.24.05.35.09.37.13.66.4.78.65.11.35.19.65.25.96.05.3.06.62.1.95.05.5.12,1.04.25,1.59l-.05.02Z"/><path class="cls-3" d="M220.37,234.49c.33-.29.65-.6.93-.95.11-.12.18-.27.28-.4.33-.47.7-.94.93-1.49.12-.24.18-.49.26-.74.08-.32.13-.52.24-.98.05-.21.21.07.23.49-.03.72-.16,1.44-.47,2.1-.18.4-.34.82-.58,1.2-.26.42-.55.81-.88,1.18-.2.23-.41.44-.63.65-.33.32-.69.59-1.05.88-.29.2-.53.47-.83.66-.06.04-.12.09-.2.13-.26.13-.38.1-.54-.1-.04-.05-.08-.09-.11-.14-.1-.16-.07-.36.07-.51.4-.47.83-.82,1.3-1.17.35-.25.7-.51,1.02-.82l.02.02Z"/><path class="cls-3" d="M78.34,246.64c.48-.87.96-1.73,1.46-2.59.18-.31.32-.65.51-.96.69-1.08,1.41-2.14,2.22-3.13.35-.45.7-.89,1.05-1.33.42-.59.97-1.07,1.58-1.49.19-.13.26-.01.27.25,0,.26-.02.69-.2,1.05-.28.68-.71,1.21-1.06,1.82-.19.29-.37.58-.56.88-.21.28-.42.56-.64.84-.54.67-.87,1.5-1.27,2.27-.44.85-.88,1.71-1.29,2.59l-.77,1.62c-.38.82-.78,1.65-1.11,2.49-.25.66-.4,1.35-.63,2.01-.05.15-.08.3-.14.44-.22.53-.41.65-.87.58-.1-.02-.21-.02-.31-.05-.34-.09-.51-.42-.46-.85.08-.63.2-1.27.37-1.89.19-.62.41-1.23.65-1.85.36-.91.75-1.82,1.17-2.72l.05.02Z"/><path class="cls-3" d="M54.09,287.61c-.69-.1-1.4-.17-2.12-.22-.26-.02-.53,0-.79-.02-.93-.08-1.88-.29-2.81-.47-.41-.08-.84-.16-1.25-.22-.52-.16-1.07-.27-1.5-.67-.13-.12-.09-.17.09-.27.18-.1.51-.33.79-.31l.78-.03c.25.01.5.04.75.08.5.06,1.01.13,1.53.23.62.11,1.29.04,1.94.09.72.04,1.45.1,2.19.16.45.04.91.1,1.36.16.69.08,1.38.24,2.07.37.53.12,1.08.16,1.63.31.12.03.25.04.36.1.43.19.51.36.37.78-.03.1-.06.2-.1.29-.14.31-.43.49-.72.45-.87-.11-1.66-.33-2.55-.48-.65-.11-1.33-.22-2.02-.28v-.04Z"/><path class="cls-3" d="M131.86,177.72s-4.61,6.96-14.54,7.76c-6.63.53-14.16-4.18-20.89-3.38-6.49.78-13.93,9.05-13.93,9.05l8.92-10.88,6.31-4.18s7.33,4.39,10.63,4.99c3.3.6,11.26.66,11.26.66l12.24-4.03Z"/><path class="cls-3" d="M136.53,139.32c5.21-1.69,11.8-7.37,14.06-16.19,0,0,2.76-8.03,1-15.32-2.13-8.85-10.6-14.95-15.06-15.99-5.71-1.33-17.24,3.75-21.26,5.73-4.02,1.98-8.36,5.87-13.34,8.38-4.98,2.51-18.89,3.21-23.32,3.61s-18.81,5.02-18.81,5.02c0,0-8.41,12.23-8.41,19.19,0,6.52-.29,7.51,2.33,11.6,7.28,11.37,20.27,14.11,24.9,11.49,0,0-5.85-1.4-7.15-3.34s-2.9-7.08-1.7-8.94c1.21-1.86,5.1-3.41,6.1-3.49,3.13-.25,8.16,8.65,8.16,8.65,0,0,2.11.9,3.97.26,1.86-.64,1.05-5.43,1.05-5.43l-2.64-9.05-.19-3.56s13.75,2.32,20.34.86c6.59-1.46,16.46-4.88,16.46-4.88l9.53-5.59,3.99,16.98Z"/><path class="cls-3" d="M80.27,452.62c3.83.37,7.74.56,11.63.46,1.42-.04,2.83-.2,4.22-.31,1.23-.09,2.46-.24,3.62-.4l.51-.09c.1-.02.21-.05.31-.09.22-.1.24-.37.17-.57-.03-.11-.09-.21-.16-.3-.03-.05-.07-.1-.11-.14-.03-.03-.15-.18-.24-.26-.38-.39-.85-.75-1.33-1.1-.98-.69-2.06-1.3-3.17-1.87-1.97-1.01-4.09-1.76-6.18-2.48-1.35-.45-2.72-.84-4.1-1.21l-2.05-.61-1.03-.29c-.34-.1-.68-.24-1.02-.35-.85-.29-.74-.36.06-.59.8-.28,2.33-.59,4.03-.39,1.5.23,2.96.58,4.42.96,1.46.37,2.9.84,4.31,1.4,1.41.55,2.81,1.17,4.18,1.92,1.37.76,2.72,1.58,3.97,2.86.26.25.52.57.72.89.24.3.37.64.53.97.25.67.28,1.39.08,2.05l-.18.49c-.11.14-.2.29-.32.41-.22.25-.52.44-.84.61-.33.15-.66.32-1.02.43-.17.05-.38.12-.52.17l-.36.1c-1.9.51-3.76.7-5.61.87-4.06.31-8.11.32-12.16.1-2.49-.16-4.98-.42-7.46-.83-1.88-.33-3.76-.75-5.62-1.47-.92-.37-1.85-.81-2.72-1.52-.42-.35-.85-.81-1.13-1.34-.22-.46-.5-.9-.65-1.39-.6-1.48-.84-3.09-.82-4.64.02-1.56.29-3.07.67-4.5.17-.63.32-1.25.52-1.86.77-2.24,1.21-2.79,2.18-3.01.22-.05.46-.13.67-.14.71-.04.96,1.1.56,2.81-.58,2.5-1.25,4.9-1.23,7.07,0,1.08.2,2.07.56,3,.08.24.19.46.31.68l.17.34c.05.07.03.06.08.11.12.16.44.42.87.65,1.29.71,3.13,1.2,4.95,1.56,1.84.36,3.76.6,5.69.75v.09Z"/><path class="cls-3" d="M169.39,446.91c3.93-.34,7.87-.93,11.72-1.72,1.4-.3,2.76-.74,4.09-1.15.59-.18,1.16-.38,1.7-.6.27-.11.54-.22.77-.34.19-.09.21-.1.32-.16.17-.1.33-.3.29-.52-.04-.21-.21-.37-.39-.51l-.24-.15c-.11-.07-.24-.13-.37-.19-.25-.13-.52-.25-.8-.36-.55-.23-1.14-.42-1.73-.59-1.19-.35-2.43-.63-3.68-.86-2.22-.42-4.51-.61-6.76-.76-2.9-.23-5.81-.08-8.69-.6-.46-.21-.67-.29-.67-.33,0-.04.22-.09.59-.39.74-.57,2.2-1.3,3.92-1.42,3.05-.1,6.1-.06,9.14.32,3.05.39,6.09.86,9.17,2.13.47.21.91.41,1.42.71.66.37,1.26.89,1.7,1.47.39.6.63,1.32.52,2.04-.07.74-.53,1.34-1.01,1.88-.3.23-.59.48-.9.7l-.77.44c-.46.23-.92.45-1.38.63-.92.39-1.83.69-2.74.97-4.02,1.17-8.08,1.86-12.16,2.36-2.51.3-5.03.53-7.56.65-1.92.09-3.85.11-5.8,0-.97-.05-1.95-.16-2.94-.32-.99-.2-2-.39-3.05-1.03-1.42-.94-2.5-2.27-3.16-3.84-.64-1.56-.8-3.2-.8-4.74,0-.68,0-1.34.08-2,.31-2.43.67-3.11,1.64-3.48.22-.08.43-.2.63-.24.65-.14,1.14.94,1.08,2.67-.03,2.53-.17,5.1.63,6.78.17.44.44.79.71,1.15.15.17.32.33.48.5.18.13.41.36.53.42.05.02.08.04.13.08l.27.1c.17.08.46.13.69.21.54.11,1.11.21,1.72.28,3.68.34,7.73.14,11.66-.26v.08Z"/><path class="cls-3" d="M71.65,437.55c-4.2-.28-8.4-.65-12.62-1.37-2.11-.37-4.22-.81-6.35-1.53-1.07-.38-2.14-.8-3.23-1.55-.54-.37-1.11-.85-1.58-1.57-.43-.72-.62-1.35-.77-1.96-.29-1.21-.38-2.33-.43-3.43-.05-1.1-.04-2.18,0-3.26.07-2.14.24-4.26.46-6.36.43-4.2,1.05-8.35,1.71-12.49.98-6.04,2.04-12.05,3.26-18.02,4.35-21.05,9.51-41.89,15.03-62.63,2.47-9.2,4.97-18.44,7.54-27.53,1.65-5.84,3.39-11.68,5.23-17.48l1.42-4.34,1.55-4.3c1.06-2.86,2.16-5.7,3.48-8.46.82-1.72,1.32-2.41,1.37-2.31.07.1-.26.98-.7,2.52-.46,1.54-.97,3.76-1.65,6.42-.33,1.33-.7,2.78-1.08,4.31-.19.77-.41,1.55-.59,2.37-.23.8-.47,1.62-.72,2.46-1.76,5.92-3.4,11.88-5.04,17.84-1.68,5.95-3.31,11.92-4.92,17.9-1.59,5.99-3.18,11.98-4.77,17.99-1.57,6.01-3.15,12.03-4.73,18.06-3.71,14.45-6.99,29.64-9.84,44.61-1.54,8.23-2.99,16.5-3.78,24.78-.18,2.07-.32,4.14-.32,6.18-.01,1.02.04,2.03.13,3.01.11.94.3,1.96.64,2.53.29.5,1.11,1.04,1.96,1.43.87.4,1.82.72,2.79,1,1.95.55,3.98.93,6.03,1.25,10.12,1.46,20.5,1.68,30.79,1.6,3.9-.05,7.81-.16,11.7-.4.97-.06,1.94-.13,2.9-.23.48-.05.96-.1,1.42-.17.22-.03.48-.07.65-.11.13-.03.27-.05.38-.13.36-.22.76-1.21,1.05-2.05.29-.89.53-1.82.75-2.75.85-3.76,1.4-7.63,1.91-11.49.5-3.86.93-7.73,1.33-11.59,1.24-12.01,2.06-23.83,3.14-35.74.24-2.62.45-5.19.73-7.84,1.05-9.8,1.77-12.89,2.89-14.86.26-.45.54-1.05.77-1.29.79-.82.62,3.19-.06,10.33-1.01,10.6-1.86,21.52-2.84,32.61-1.01,11.09-1.95,22.33-3.7,33.62-.34,2.1-.7,4.2-1.17,6.32-.24,1.06-.5,2.13-.85,3.22-.17.54-.38,1.11-.62,1.69-.14.3-.28.59-.48.93-.23.39-.59.84-.98,1.16-.4.33-.87.55-1.39.67-.29.07-.45.1-.59.12l-.44.07c-.58.09-1.12.14-1.66.2-1.08.1-2.15.18-3.22.25-2.13.13-4.25.21-6.37.27-8.48.22-16.95.12-25.43-.39l-.02-.07Z"/><path class="cls-3" d="M237.19,183.82c-.93,2.6-1.7,5.34-2.78,7.98-.38.97-.7,1.96-1.12,2.92-.75,1.69-1.54,3.36-2.47,4.98-.48.8-.98,1.59-1.52,2.35-.55.8-1.23,1.57-1.97,2.19-1.33,1.1-2.8,1.96-4.31,2.61-.97.42-1.95.82-2.97,1.06-.51.12-1.02.24-1.53.33-.26.05-.51.09-.77.12-.26.03-.54-.02-.8-.02-.67-.06-.57-.02-.1-.37.46-.42,1.31-1.07,2.37-1.52.93-.43,1.86-.8,2.76-1.22.89-.42,1.74-.9,2.52-1.45.78-.54,1.48-1.15,2.07-1.83.31-.34.54-.68.82-1.09.27-.42.54-.85.81-1.29,1.27-2.09,2.24-4.49,3.15-6.86l3.01-7.93c.65-1.64,1.25-3.29,2.14-4.92.15-.26.42-.76.72-1.11.28-.41.67-.66,1.06-.83.4-.16.89-.18,1.28.04.4.2.7.54.94.93.5.89.67,1.52.85,2.2.18.68.31,1.35.39,2.02.26,2.09.57,4.13.5,6.22-.02.46-.01.91-.06,1.38-.05.43-.11.79-.19,1.09-.09.3-.22.53-.34.71-.24.37-.51.55-.85.65-.15.05-.3.12-.43.13-.41.04-.65-.69-.82-1.86-.03-1.72-.27-3.5-.34-5.28-.11-1.77-.35-3.59-.58-5.16-.02-.13-.06-.32-.08-.36,0,0,0,0,0,0h0s0-.03-.02-.02c0,0,0,0-.01.01l-.2.39c-.13.28-.27.58-.39.89-.25.62-.48,1.26-.7,1.92l-.06-.02Z"/><path class="cls-3" d="M49.1,316.39c-.25-.14-.49-.31-.74-.49-.16-.11-.28-.23-.42-.34-.27-.23-.53-.47-.77-.72-.49-.49-.93-1.01-1.33-1.55-.81-1.07-1.47-2.22-2.04-3.39-.41-.86-.82-1.71-1.12-2.6-.51-1.59-.9-3.15-1.12-4.83-.2-1.66-.19-3.33-.03-4.96.14-1.45.42-2.86.7-4.25.16-.89.42-1.76.68-2.62.26-.86.57-1.71.99-2.53.26-.51.27-.43.36.07.05.25.13.62.24,1.06.08.44.12.93.09,1.45-.15,3.72-1,7.05-.91,10.5.05,2.05.77,4.22,1.55,6.2.88,2.18,2.06,4.28,3.72,5.85.26.23.52.46.79.66.12.1.29.21.45.31.33.18.74.34,1.14.23.13-.04.24-.12.32-.22.08-.26-.11-.5-.22-.73-.13-.24-.28-.47-.43-.72-.51-.8-1.1-1.73-1.63-2.61-.93-1.56-1.87-3.12-2.47-4.9-.13-.39-.26-.78-.36-1.19-.42-1.55.27-2.11.57-2.4.09-.07.18-.16.26-.2.14-.06.27.05.42.3.13.25.46.62.63,1.08.74,2.79,2.37,5.43,4.24,8.1l.75,1.08c.35.51.69,1.04.95,1.56.24.51.4.99.36,1.37,0,.41-.16.64-.32,1.1-1.1,1.6-3.21,1.65-5.33.4l.02-.06Z"/><path class="cls-3" d="M58.78,304.59l-.5-1.23c-.13-.3-.23-.59-.33-.89-.11-.3-.2-.59-.27-.87-.31-1.14-.32-2.08-.03-2.75.13-.34.34-.68.72-.95.17-.16.39-.25.57-.28.18-.04.34-.08.51-.07.34.01.71.09,1.13.28.42.19.89.49,1.36.85l1.89,1.5c.14.1.2.14.31.24.09.07.2.16.34.18.13,0,.23-.11.27-.21.08-.25.03-.48-.1-.84-.62-1.49-1.59-2.97-2.46-4.49-.79-1.35-1.66-2.67-2.43-4.05-.5-.89-.92-1.83-1.24-2.83-.33-.99-.41-2.1-.23-3.13.16-.64.19-.52.33,0,.08.26.21.61.44,1,.1.19.25.4.38.61.07.1.14.21.23.32.06.11.11.23.17.35.42.84.97,1.63,1.52,2.44.51.82,1.07,1.64,1.63,2.46.57.82,1.14,1.65,1.71,2.52.54.88,1.06,1.79,1.54,2.76l.42.9.26.6.26.74c.3.99.34,1.92,0,2.69-.16.39-.45.72-.78,1.01-.36.28-.78.34-1.17.31-.79-.04-1.69-.55-2.52-1.18l-.58-.46-.11-.1-.07-.06-.28-.25c-.19-.17-.4-.37-.66-.52-.13-.09-.31-.08-.38.04-.08.11-.08.24-.08.37.02.26.09.53.19.82l.09.27c.04.11.04.13.14.36l.49,1.15,1.03,2.33c.52,1.2,1.02,2.41,1.34,3.78.02.09.04.17.05.27.02.12.05.24.06.35.02.23.04.45.04.68-.01.45-.1.88-.31,1.25l-.18.27-.23.22c-.08.07-.15.15-.24.21l-.29.13c-.39.17-.83.18-1.26.12-.33-.05-.66-.19-.99-.3-.15-.07-.33-.17-.47-.25-.13-.06-.25-.13-.36-.21-.46-.29-.89-.62-1.29-.97-.8-.69-1.51-1.46-2.13-2.31-.29-.36-.54-.74-.78-1.14-.84-1.53-.81-2.17-.3-2.71.11-.12.22-.26.34-.35.42-.27,1,.2,1.58,1.11.88,1.34,1.95,2.63,3.14,3.64.3.24.6.47.89.65.07.06.14.09.21.12.02,0-.01,0,0,0,0,0,.01,0,.01,0,0-.01,0-.02,0-.02h0s0,0,0,0h0s-.02-.08-.02-.08c-.07-.26-.14-.53-.24-.82-.19-.57-.43-1.17-.69-1.78-.51-1.22-1.09-2.47-1.66-3.76l.06-.03Z"/><path class="cls-3" d="M51.92,239.27c-4.06,9.65-7.47,19.62-9.93,29.8-.88,3.7-1.6,7.49-2.01,11.16-.02.27-.08.58-.08.83v.38s-.02.18-.02.18c-.03.16.12.32.22.37.28.18.83.42,1.34.59,1.06.36,2.24.62,3.42.83,2.38.42,4.83.68,7.28.86,2.46.18,4.93.27,7.39.26,1.23,0,2.46-.04,3.67-.13.61-.04,1.2-.1,1.78-.18.28-.05.57-.09.82-.16.15-.03.2-.05.26-.07.06-.02.12-.05.17-.1.05-.06.11-.13.13-.19.04-.06.13-.27.19-.41.14-.31.25-.66.38-1,.24-.7.46-1.41.67-2.13.43-1.44.83-2.89,1.24-4.35,1.6-5.82,3.18-11.69,5-17.42,1.16-3.68,2.42-7.35,3.89-10.94.73-1.8,1.54-3.57,2.39-5.31.87-1.74,1.88-3.41,2.98-5.01,1.51-1.91,1.34-1.6.58.3-.36.96-.9,2.3-1.47,3.94-.61,1.62-1.35,3.49-2.16,5.53-2.45,6.13-4.37,12.48-6.13,18.89-.85,3.22-1.71,6.44-2.56,9.67l-1.31,4.87c-.23.82-.47,1.63-.74,2.46-.13.41-.28.83-.45,1.27-.1.24-.16.42-.3.69-.17.39-.42.66-.66.97-.23.13-.43.32-.69.4-.24.1-.52.24-.68.26-.36.1-.69.16-1.01.22-.64.11-1.26.18-1.88.24-1.23.11-2.44.16-3.66.19-3.79.07-7.62-.02-11.48-.34-1.93-.16-3.88-.38-5.84-.77-.99-.21-1.97-.42-3-.82-.26-.1-.53-.23-.79-.35-.22-.13-.7-.38-.96-.63-.3-.26-.57-.55-.76-.9-.13-.16-.13-.37-.19-.55l-.04-.14s.01-.05-.04-.07v-.07s-.04-.29-.04-.29l.02-1.06c0-.3.03-.56.06-.83l.17-1.61c.16-1.04.28-2.1.49-3.12.96-5.32,2.28-10.52,3.79-15.67,1.52-5.15,3.22-10.23,5.15-15.23,2.37-6.16,4.97-12.22,7.91-18.12,1.1-2.24,2.29-4.44,3.44-6.65,1.25-2.17,2.44-4.36,3.74-6.5,2.61-4.29,5.53-8.35,8.6-12.25,4.8-6.04,9.8-11.74,15.47-16.92.63-.57,1.25-1.13,1.87-1.69.65-.54,1.3-1.08,1.96-1.62,2.5-1.97,4.32-3.09,5.69-3.71.7-.3,1.26-.49,1.75-.6.51-.09.95-.06,1.34-.01.36.05.79.05,1.01.15.71.36-1.36,1.63-4.92,4.21-5.26,3.96-10.17,8.81-14.87,13.91-4.65,5.16-9.11,10.65-12.98,16.52-.74,1.08-1.42,2.19-2.1,3.3-.7,1.09-1.32,2.26-1.98,3.4l-1.94,3.44-1.83,3.51c-1.26,2.32-2.33,4.74-3.49,7.11-1.08,2.41-2.18,4.82-3.18,7.26l-.08-.02Z"/><path class="cls-3" d="M137.68,168.41c-.96,2.94-2.39,5.81-4.49,8.2-2.04,2.4-4.77,4.33-7.75,5.35-2.15.74-4.34,1.27-6.56,1.46-7.83.72-15.88-1.81-21.76-6.89-2.6-2.25-4.86-4.87-6.73-7.7-2.38-3.64-4.06-7.72-4.97-11.91-.23-1.32-.17-1.15.43-.17.33.55.74,1.24,1.2,2.03.51.83,1.13,1.78,1.68,2.84.93,1.91,2.08,3.69,3.22,5.44,1.16,1.74,2.4,3.42,3.81,4.95,2.84,3.02,6.21,5.54,10.06,7.19,2.3.98,4.83,1.57,7.4,1.81,2.57.2,5.19.07,7.71-.42,2.77-.54,5.45-1.44,7.63-3.13,2.19-1.67,3.98-3.89,5.19-6.44.78-1.55,1.37-3.21,1.79-4.91.43-1.7.74-3.45.88-5.21.5-5.35-.24-10.81-1.25-16.14-.8-4.15-1.91-8.16-2.77-12.31-.2-.91-.37-1.81-.53-2.74-.51-3.47-.35-4.63.37-5.42.16-.18.31-.41.47-.52.54-.36,1.14,1,1.6,3.43.74,3.61,1.59,7.31,2.42,11.12.82,3.81,1.63,7.73,2.14,11.76.8,5.95.76,12.34-1.14,18.33h-.07Z"/><path class="cls-3" d="M81.53,148.99c-.75-1.55-1.36-2.96-2.19-4.11-.43-.58-.83-1.03-1.34-1.4-.51-.37-1.11-.64-1.73-.81-.92-.26-1.88-.14-2.73.09-.75.23-1.4.66-1.89,1.26-.55.68-.95,1.5-1.17,2.33-.44,1.68-.06,3.59.88,5.3.78,1.47,2.15,2.62,3.65,3.44.97.53,2.03.85,3.08,1.11.53.13,1.07.17,1.61.25.54.05,1.11.09,1.67,0,.7-.1.71.03.21.55-.12.14-.29.29-.49.44-.2.16-.44.35-.73.5-.56.36-1.32.61-2.12.6-1.43.04-2.83-.31-4.11-.88-1.28-.56-2.51-1.31-3.52-2.36-.52-.51-.97-1.1-1.38-1.73-.38-.62-.69-1.22-.96-1.9-.54-1.32-.83-2.82-.69-4.31.16-1.79.83-3.51,1.87-4.93,1.12-1.58,3-2.5,4.8-2.66,2-.17,3.97.44,5.54,1.62.39.29.75.64,1.08.99.29.36.6.72.84,1.1.52.75.94,1.52,1.32,2.29.47.94.88,1.88,1.33,2.71.22.43.47.78.72,1.08.26.26.46.38.73.42.09,0,.18,0,.28-.02.11-.04.22-.07.34-.1l.22-.07c.41-.13.7-.37.93-.83.23-.45.35-1.04.4-1.65.1-1.22-.03-2.53-.27-3.8-.43-2.28-1.24-4.46-2.08-6.62-.19-.47-.38-.94-.58-1.42-.67-1.79-.74-2.4-.12-3.09.13-.15.24-.33.38-.44.42-.37,1.3.15,1.92,1.47.96,1.93,1.76,4,2.4,6.19.62,2.2,1.11,4.47,1.13,7.03-.01.92-.08,1.89-.47,2.98-.17.53-.52,1.13-.97,1.66-.5.52-1.18.97-1.84,1.13-.03.01-.15.06-.11.04.14-.05.11-.04.11-.04-.34.11-.65.23-1.03.29-.41.03-.83.09-1.23-.02-.2-.04-.4-.09-.6-.15-.19-.08-.37-.18-.55-.27-.4-.19-.58-.44-.88-.66-.92-.93-1.29-1.77-1.72-2.56l.06-.04Z"/><path class="cls-3" d="M74.75,107.58c2.76-.4,5.57-.49,8.28-.44,2.71.05,5.32.2,7.82.06,2.5-.13,4.91-.59,7.25-1.44,2.18-.73,4.23-2.23,6.36-3.78,3.09-2.26,6.16-4.78,9.63-6.81,3.04-1.8,6.36-3.29,9.87-4.16l1.31-.33c.45-.08.9-.13,1.35-.2l1.35-.18.67-.09h.68s2.72-.05,2.72-.05l2.69.3c.91.05,1.77.33,2.64.52.87.24,1.75.36,2.61.7,1.72.57,3.4,1.34,4.92,2.36,3.06,2.01,5.55,4.82,7.21,7.99,2.96,5.63,3.99,12.05,3.44,18.21-.16,1.98-.56,3.95-1.09,5.87-.57,1.92-1.35,3.78-2.35,5.52-1.04,1.71-2.21,3.38-3.72,4.72-.7.72-1.56,1.27-2.35,1.87-.41.28-.86.5-1.29.75-.44.23-.84.53-1.34.64-2.39.7-1.99.65-.34-.57.41-.31.88-.7,1.4-1.17.26-.24.55-.45.82-.73.26-.28.54-.58.83-.89.61-.57,1.08-1.38,1.7-2.09.51-.81,1.13-1.59,1.62-2.52,3.66-6.43,4.34-14.46,2.53-21.62-.92-3.6-2.48-7-4.82-9.71-2.34-2.71-5.44-4.66-8.94-5.76-4.27-1.39-8.96-1.5-13.4-.3-.55.16-1.12.27-1.66.46l-1.63.61-.81.31-.79.38-1.58.75c-2.07,1.12-4.09,2.34-6.05,3.72-2.17,1.48-4.26,3.11-6.47,4.7-1.11.79-2.22,1.59-3.47,2.3-.58.38-1.28.69-1.95,1-.68.35-1.34.49-2.01.74-2.68.87-5.51,1.31-8.28,1.38-2.77.08-5.45-.1-8.07-.1-3.23-.01-6.42.24-9.56.92l-2.34.57c-.78.21-1.54.46-2.31.69-.8.21-1.46.54-2.19.81-.68.37-1.4.66-2.04,1.1-4.02,2.46-7.16,6.37-9.11,10.74-1.96,4.39-2.71,9.3-2.06,14.02.51,3.66,1.84,7.17,3.93,10.12,1.04,1.49,2.23,2.8,3.6,4.03,1.35,1.22,2.8,2.29,4.35,3.15,1.37.76,2.79,1.32,4.3,1.76,2.81.8,4.78.95,6.16,1.17,1.38.2,2.2.47,2.88.87.31.18.72.36.91.54.32.31-.14.62-1.3.94-1.15.3-3.01.52-5.44.32-3.58-.3-7.29-1.42-10.49-3.47-1.6-1.01-3.08-2.2-4.42-3.49-1.37-1.3-2.64-2.8-3.71-4.41-4.29-6.49-5.5-14.9-3.45-22.46,1.48-5.6,4.55-10.83,9.06-14.68.56-.49,1.17-.91,1.76-1.36.62-.42,1.26-.8,1.89-1.19.67-.33,1.33-.7,2.02-.99.69-.26,1.43-.59,2.09-.77,2.65-.87,5.4-1.52,8.19-1.94l.03.08Z"/><path class="cls-3" d="M55.21,313.61c.39.4.88.77,1.21.96.08.08.21.17.36.16.1,0,.2-.06.23-.15.03-.07.01-.16,0-.23l-.03-.11s0-.04-.02-.06l-.04-.2c-.24-1.01-.67-2.08-1.07-3.16-.41-1.08-.85-2.17-1.3-3.26-.4-.96-.81-1.93-1.16-2.92-.22-.64-.45-1.27-.58-1.95-.12-.68-.16-1.37-.09-2.06.06-.43.13-.35.28-.02.13.34.5.91.85,1.55.56,1.16,1.2,2.28,1.88,3.41.61,1.16,1.24,2.34,1.79,3.59.34.74.72,1.49,1.1,2.27.19.39.38.78.56,1.2.08.21.17.42.25.64l.15.45.11.5c.14.68.16,1.36-.07,1.94-.13.27-.27.56-.51.77-.11.12-.23.21-.37.29-.13.09-.26.17-.41.23-.69.26-1.47.3-2.21.06-.36-.11-.75-.27-1.04-.44-.27-.14-.5-.31-.73-.48-1.03-.77-1.82-1.68-2.55-2.61-1.1-1.42-1.96-2.96-2.76-4.51-.6-1.21-1.33-2.37-1.73-3.69-.09-.29-.2-.57-.26-.87-.17-1.14.02-1.54.54-1.83.12-.07.24-.15.35-.19.41-.13.79.26,1.15.92,1.09,1.94,1.96,3.97,3.16,5.9.88,1.41,1.87,2.82,3,3.85l-.05.05Z"/><path class="cls-3" d="M235.93,208.51c.41-1.01.64-2.21.94-3.53.15-.64.34-1.38.54-1.98l.6-1.85c.28-.89.48-1.8.72-2.68.41-1.55.78-3.13.74-4.6.01-.37-.07-.72-.11-1.04-.04-.16-.09-.33-.19-.49-.1-.15-.23-.3-.4-.39l-.13-.08c-.05-.02-.09.03-.12.05-.06.07-.1.15-.15.23-.08.15-.15.31-.22.47l-.37.9c-.29.68-.59,1.37-.9,2.05-.79,1.71-1.66,3.58-3.36,4.71-.53.32-.41.31-.16-.13.11-.23.24-.58.31-1.04.1-.43.24-.9.4-1.4.14-.45.3-.88.48-1.31l.47-1.32c.32-.88.56-1.8.92-2.7l.36-.92c.18-.44.37-.87.58-1.26.22-.36.47-.65.74-.82.13-.07.26-.15.41-.17.07-.01.16-.01.25,0,.02-.03.05.06.06-.06l.06.02.13.04.51.16c.17.05.34.1.5.23l.47.33.23.16.19.24c.23.34.55.6.67,1.03l.24.59.11.29.04.22c.25,1.4.17,2.69.05,3.95-.13,1.26-.35,2.48-.64,3.66-.32,1.3-.68,2.57-1.05,3.81-.37,1.18-.57,2.43-.89,3.76-.36,1.64-1.08,3.39-2.26,4.72-.43.52-.92.96-1.42,1.39-.54.42-1.1.79-1.69,1.08-1.17.6-2.36,1.01-3.51,1.42-1.8.63-3.49,1.33-5.08,2.13-.36.17-.68.38-1.03.56-1.3.64-1.78.68-2.43.25-.15-.1-.31-.18-.43-.29-.39-.33-.12-1.12.84-1.87,2.87-2.17,6.65-3,9.52-4.2.53-.23,1.02-.48,1.45-.75.22-.14.4-.29.61-.44.2-.18.43-.35.6-.54.77-.75,1.33-1.59,1.7-2.6l.06.02Z"/><path class="cls-3" d="M171.43,429.89c3.88-.88,7.71-1.97,11.29-3.47,1.77-.76,3.48-1.64,4.92-2.71.36-.26.66-.55,1-.83.25-.3.58-.59.77-.9.09-.14.22-.33.29-.42.03-.08.04-.02.05-.18.02-.14.05-.28.05-.5,0-.2.03-.4.01-.63-.04-1.81-.33-3.82-.66-5.78-.33-1.97-.72-3.95-1.13-5.93-.83-3.96-1.75-7.91-2.72-11.85-1.41-5.76-2.99-11.48-4.49-17.22-5.34-20.23-10.96-40.41-16.58-60.59-2.53-8.95-5.07-17.94-7.58-26.82-1.56-5.72-3.14-11.45-4.59-17.21-1.39-5.78-2.64-11.61-3.38-17.52-.2-1.85-.21-2.66-.16-2.61.06.04.21.94.65,2.45.43,1.51,1.11,3.63,2.02,6.16.87,2.54,1.87,5.52,2.88,8.78l4.99,17.42c1.64,5.82,3.27,11.64,4.91,17.47,3.27,11.66,6.54,23.36,9.72,35.14,3.8,14.09,8.12,28.65,11.93,43.1,2.08,7.95,4.12,15.91,5.8,24,.41,2.02.81,4.06,1.13,6.12.15,1.04.3,2.07.39,3.14.09,1.08.18,2.12,0,3.42-.02.32-.2.74-.34,1.11l-.52.8c-.33.52-.76.9-1.14,1.35-.83.78-1.71,1.48-2.62,2.06-1.83,1.18-3.75,2.11-5.7,2.9-4.81,1.93-9.78,3.22-14.79,4.23-5.02.97-10.08,1.64-15.19,1.94-1.94.11-3.88.16-5.85.09-.98-.04-1.97-.11-2.97-.24-1.01-.17-2.01-.3-3.11-.8-.26-.09-.58-.34-.86-.51-.27-.21-.44-.46-.66-.7-.23-.25-.33-.47-.48-.71-.13-.23-.3-.47-.4-.71-.46-.93-.81-1.87-1.14-2.8-.63-1.87-1.12-3.74-1.6-5.61-1.83-7.49-3.18-15.02-4.58-22.49-2.16-11.61-4.34-22.97-6.83-34.33-.55-2.5-1.13-4.94-1.72-7.45-2.19-9.3-2.94-12.2-2.63-14.45.06-.51.07-1.16.18-1.48.3-1.09,2.3,2.44,4.2,9.28,5.67,20.24,8.81,42.13,13.29,63.6.86,3.95,1.75,7.96,3.02,11.62.32.9.68,1.76,1.05,2.51.09.17.19.3.28.46l.13.23s.06.05.09.08c.03.03.05.06.07.1,0,0,.02,0-.04.06l-.03.04c-.15.18.3-.34-.34.4l.05-.05.2-.22.18-.23h0s-.02,0,.04.03l.19.07c.54.2,1.45.37,2.36.46.91.11,1.88.15,2.85.17,3.91.06,7.95-.27,11.93-.77,4-.5,7.96-1.26,11.88-2.14l.04.08Z"/><path class="cls-3" d="M331.5,124.54c-.82.01-1.65-.02-2.48-.07-.3-.03-.6,0-.91-.04-1.06-.18-2.11-.43-3.1-.78-.44-.16-.89-.25-1.32-.39-.57-.12-1.11-.38-1.59-.74-.15-.12-.07-.27.15-.44.21-.16.57-.39.91-.4.59-.04,1.12.1,1.67.14.54.08,1.08.13,1.61.33.64.19,1.34.11,2.01.1.74,0,1.5.02,2.26-.01.47-.03.94-.05,1.42-.1.72-.08,1.45-.14,2.17-.3.56-.13,1.08-.39,1.63-.58.12-.04.24-.11.36-.13.47-.1.64.05.81.71.04.15.09.3.11.45.1.52-.04.97-.34,1.16-.9.58-1.89.79-2.94.94-.78.11-1.59.16-2.41.22v-.06Z"/><path class="cls-3" d="M345.47,132.78c-.05.53-.11,1.08-.14,1.6-.01.18.06.31.04.42,0,.2-.12.27-.16.38-.05.12.06.28.32.36.23.08.52.05.82.05.39-.01.87-.06,1.31.25.13.1.01.38-.15.68-.17.29-.32.67-.47.75-.29.12-.61.32-1.09.37-.44.05-1.14.05-1.82-.42-.38-.27-.74-.62-.97-1-.25-.37-.34-.73-.39-1.03-.05-.35-.05-.61-.05-.87v-.81c-.01-.33-.01-.67-.03-1-.03-.5-.01-1.01-.12-1.49-.08-.38-.34-.73-.52-1.09-.04-.08-.11-.15-.13-.24-.09-.31.09-.43.88-.59l.53-.1c.58-.1,1.14-.03,1.33.17.61.61.76,1.3.84,2.01.06.52.02,1.06.03,1.6h-.07Z"/><path class="cls-3" d="M350.2,132.8c-.12.59-.24,1.18-.36,1.76-.03.06.03.1.01.16-.01.05,0,.1,0,.16.1.2.15.23.91.51.34.12.69.19,1.03.28.44.1.89.19,1.3.45.13.08.08.31-.08.56-.16.24-.42.56-.7.62-.48.08-.96.19-1.42.18-.23-.02-.46-.05-.69-.1-.11-.02-.23-.05-.34-.08-.2-.06-.41-.08-.62-.12-.51-.18-.98-.39-1.36-.75-.32-.28-.51-.69-.58-1.11-.04-.25-.05-.52-.03-.77.01-.2.04-.36.06-.52l.14-.93c.05-.38.12-.77.16-1.15.06-.58.16-1.16.14-1.74-.02-.45-.2-.9-.31-1.34-.03-.1-.08-.2-.09-.3-.03-.37.21-.47.93-.53l.5-.03c.55-.02,1.02.15,1.21.42.5.81.5,1.65.47,2.49-.03.62-.13,1.25-.2,1.87h-.07Z"/><path class="cls-3" d="M366.32,94.76c.23.24.47.54.75.78.1.09.23.11.33.21.36.35.72.71,1.06,1.1.15.17.33.28.51.4.23.14.47.28.59.57.04.09-.11.3-.32.49-.21.19-.48.41-.63.41-.53-.05-1.02-.08-1.41-.42-.21-.25-.56-.24-.85-.37-.32-.14-.64-.32-.97-.51-.2-.13-.4-.26-.59-.38-.31-.19-.59-.43-.92-.58-.26-.11-.62-.09-.95-.15-.07-.01-.16,0-.22-.04-.22-.12-.14-.34.38-.99l.36-.45c.42-.49.83-.84,1.05-.91.65-.21.89-.03,1.2.19.22.17.43.39.68.59l-.03.06Z"/><path class="cls-3" d="M364.99,92.34c.35-.09.71-.19,1.05-.35.12-.05.2-.16.33-.22.46-.19.94-.4,1.39-.65.21-.1.38-.23.55-.37.11-.09.21-.19.32-.27.13-.06.3-.09.47-.1.11,0,.24.16.36.41.11.24.27.62.25.82-.25.54-.54,1.03-1.13,1.22-.34.13-.51.48-.78.71-.3.26-.63.5-.98.72-.22.13-.43.27-.64.4-.32.21-.67.37-.96.6-.22.19-.36.52-.54.8-.04.06-.06.14-.11.19-.18.17-.34.02-.78-.71l-.29-.5c-.32-.58-.49-1.1-.44-1.33.16-.68.51-.93.92-1.11.31-.13.65-.21.97-.34l.04.05Z"/><path class="cls-3" d="M104.49,131.31c2.69-.28,5.38-.72,8.03-1.33.97-.21,1.91-.55,2.87-.79,3.39-.88,6.76-1.94,9.97-3.37,1.41-.65,2.78-1.42,4.07-2.24.82-.53,1.6-1.13,2.34-1.74.19-.15.35-.31.54-.47.2-.14.38-.29.55-.45.36-.3.69-.62,1-.95.37-.41.62-.32.73.37.11.68-.1,2.04-.99,2.97-1.61,1.59-3.39,2.83-5.27,3.87-1.89,1.01-3.86,1.83-5.89,2.49-2.42.78-4.85,1.81-7.35,2.48-2.75.74-5.54,1.31-8.35,1.72-1.73.25-3.47.44-5.21.57-2.64.2-5.31.2-7.94.13-2.05-.07-4.07-.08-6.12-.29-.45-.06-.89-.1-1.34-.17-.84-.13-1.37-.34-1.7-.6-.34-.25-.49-.55-.55-.97-.03-.19-.08-.38-.08-.56.02-.59.8-.9,1.96-.84,3.44.29,6.98.6,10.62.58,2.69-.01,5.41-.15,8.12-.49v.07Z"/><path class="cls-3" d="M206.05,238.36c2.74-.57,5.48-1.17,8.17-1.94,2.65-.76,5.41-1.62,7.66-2.76l.14-.1h.02s.04-.02.06-.05c.04-.05.04-.11.05-.18.02-.5,0-1.23-.07-1.88-.11-1.35-.31-2.74-.52-4.12-.44-2.76-.99-5.53-1.63-8.27-.46-1.98-.99-3.94-1.6-5.85-.31-.96-.62-1.91-.98-2.82-.18-.45-.36-.9-.56-1.33-.1-.21-.21-.41-.3-.61-.04-.08-.06-.12-.1-.18l-.02-.03c-.06-.12-.21-.05-.31-.07-.36.02-.86.06-1.29.1l-2.71.26-5.46.54c-3.65.35-7.3.68-10.96.95-3.66.27-7.33.48-10.99.63-1.85.07-3.64.15-5.53.15-1.95-.01-3.86-.37-5.67-.93-3.22-1.01-6.18-2.58-8.98-4.31-2.79-1.76-5.44-3.7-7.97-5.72-3.25-2.61-6.38-5.36-9.48-8.12-3.11-2.75-6.13-5.54-9.16-8.34-1.95-1.68-1.74-1.42.26-.45.98.51,2.46,1.16,4.06,2.19.81.51,1.7,1.04,2.58,1.69.87.66,1.77,1.38,2.68,2.15,3.23,2.74,6.41,5.5,9.68,8.1,3.26,2.6,6.57,5.14,10.11,7.21,3.51,2.05,7.3,3.75,11.15,3.99.91.04,1.99.01,3.05-.01l3.17-.1c2.11-.08,4.23-.17,6.35-.29,4.32-.23,8.71-.61,13.12-1.07,2.21-.25,4.42-.49,6.64-.74l3.34-.37,1.7-.16c.11,0,.4-.04.62-.04.23.01.47-.04.68.03.22.03.42.11.6.21l.04.02h.02s-.03.08.04-.05h0s.06.06.06.06l.12.11.24.22c.86,1.22,1.06,1.79,1.42,2.58.32.75.59,1.5.85,2.25.95,2.78,1.67,5.58,2.33,8.4.65,2.82,1.22,5.66,1.66,8.53.22,1.44.41,2.88.49,4.39.02.38.03.76.01,1.18-.01.56-.1,1.14-.39,1.6-.03.06-.1.1-.1.18l-.14.14c-.08.1-.22.18-.34.26l-.66.45-1.04.52c-2.75,1.27-5.51,2.07-8.31,2.86-6.88,1.88-13.92,3.11-21.02,3.68-5.38.42-10.85.34-16.23-.64-1.36-.21-2.66-.62-3.98-.95-.65-.19-1.29-.42-1.94-.63-.65-.2-1.29-.43-1.91-.7-2.54-.95-4.95-2.17-7.32-3.44-3.66-2-7.11-4.28-10.47-6.57l-1.26-.84-.44-.28-.3-.18c-.2-.12-.4-.22-.59-.31l-.31-.1c-.07.09-.03.23-.04.34.02.23.05.46.08.68l.12.76c.15.99.32,1.98.52,2.97.34,1.74.74,3.43,1.17,5.17,1.62,6.43,2.41,8.32,2.36,9.9,0,.36.06.81.02,1.04-.08.81-1.97-1.46-3.55-6.24-1.19-3.52-2.12-7.14-2.85-10.87l-.27-1.41-.16-.97c-.07-.44-.13-.88-.17-1.31-.11-.87-.16-1.76.04-2.33.1-.28.22-.5.37-.68.07-.09.15-.16.25-.25.12-.11.25-.12.36-.16l.35-.1.18-.05c.06-.02.16.03.23.05l.99.27c.31.03.72.34,1.09.53l1.13.65c.19.11.39.22.57.35l.37.25.6.4,1.19.8c6.22,4.25,12.68,8.2,19.77,10.33.65.23,1.32.35,1.98.53.66.17,1.32.35,1.99.44l2.01.35,2.05.21c1.36.18,2.76.16,4.15.24,1.39.01,2.79,0,4.19-.04,5.6-.2,11.23-.93,16.77-2.03l.03.07Z"/><path class="cls-3" d="M111.22,256.9c3.47-.06,6.94-.16,10.41-.37,1.27-.08,2.52-.23,3.79-.33,2.23-.14,4.46-.3,6.7-.48,2.23-.17,4.47-.34,6.7-.58,1.98-.2,3.96-.51,5.9-.83,1.25-.21,2.51-.41,3.76-.58.63-.07,1.26-.18,1.9-.21.64-.03,1.28-.07,1.95.1.43.15.61.22.61.27,0,.05-.19.12-.48.41-.58.58-1.66,1.61-3.1,1.91-1.27.3-2.54.61-3.82.87-1.29.21-2.58.41-3.87.59-2.59.35-5.19.63-7.82.79-3.14.18-6.38.66-9.59.92-3.53.26-7.06.47-10.6.58-2.17.1-4.35.11-6.53.17-3.3.05-6.6.02-9.87.02-2.54.02-5.04.16-7.56.2-.56.02-1.1.04-1.66.02-2.07-.14-2.72-.39-3.11-1.22-.09-.18-.21-.36-.26-.52-.16-.53.71-1.1,2.22-1.24,2.24-.24,4.52-.29,6.83-.34,2.31-.07,4.65-.07,7-.1,3.48,0,6.99-.03,10.49-.13v.08Z"/><path class="cls-3" d="M360.57,122.35c-1.84,2.95-4.72,4.85-7.61,6.05-1.06.45-2.12.88-3.22,1.16-3.89.99-7.84,1.11-11.71.82-1.72-.13-3.44-.31-5.14-.61-.54-.09-1.09-.2-1.63-.32-.54-.15-1.07-.31-1.6-.51-1.06-.37-2.06-.95-2.9-1.74-.46-.59-.33-.55.33-.58.4-.02.84-.03,1.29-.05.53-.05,1.08-.04,1.64.11,2.02.35,4.03.85,6.13,1.05,2.09.24,4.2.33,6.34.33,2.56-.03,5.18-.62,7.6-1.44,2.66-.89,5.19-2.25,6.98-4.29,1.09-1.25,1.91-2.75,2.24-4.39.24-1.24.29-2.54.17-3.84-.16-1.3-.46-2.6-.89-3.86-.67-1.97-1.73-3.75-2.74-5.58-.22-.41-.46-.79-.66-1.21-.38-.78-.6-1.31-.63-1.74,0-.45.13-.77.37-1.1.11-.15.2-.32.32-.43.2-.19.47-.17.83,0,.35.18.82.5,1.17,1.04.56.78,1.12,1.59,1.64,2.43.49.86.96,1.76,1.39,2.69.85,1.87,1.57,3.89,1.97,6.07.3,1.62.37,3.34.14,5.07-.21,1.73-.83,3.45-1.75,4.93l-.06-.03Z"/><path class="cls-3" d="M340.11,97.73c.28-2.24.54-4.56,1.24-6.93.69-2.34,1.98-4.81,4.07-6.48.74-.62,1.54-1.16,2.38-1.57.84-.45,1.72-.77,2.62-1.02,3.2-.73,6.58-.45,9.54.99,1.47.72,2.82,1.76,3.82,3.1,1,1.33,1.65,2.91,1.89,4.52.4,2.82-.34,5.86-2.2,8.04-1.18,1.39-2.81,2.44-4.58,2.88-.89.2-1.8.28-2.68.2-.89-.04-1.76-.25-2.52-.7-.95-.53-.79-.46.12-.59.94-.22,2.48-.62,3.92-1.18,1.31-.43,2.45-1.17,3.26-2.19.86-.96,1.46-2.17,1.66-3.46.22-1.26.06-2.67-.37-3.86-.45-1.2-1.27-2.26-2.37-3.1-1.33-.99-3.07-1.63-4.88-1.75-1.81-.15-3.66.18-5.31.85-1.85.7-3.35,1.98-4.36,3.7-1,1.73-1.55,3.83-1.9,6.01-.46,2.69-.72,5.48-1.17,8.27-.34,2.11-.79,4.24-1.51,6.31-.71,2.07-1.78,4.08-3.28,5.76-.56.65-1.26,1.29-2.03,1.77-.77.47-1.6.86-2.45,1.1-1.7.52-3.45.66-5.15.59-.75-.02-1.49-.06-2.23-.17-2.75-.43-3.51-1-3.83-1.93-.07-.22-.18-.44-.2-.64-.06-.66,1.13-.86,2.96-.61,2.71.36,5.54.49,7.86-.21.29-.08.55-.21.83-.3.24-.14.52-.24.74-.4.23-.15.47-.29.66-.48.21-.15.42-.39.63-.62.85-.91,1.56-2,2.09-3.25,1.63-3.69,2.11-8.14,2.64-12.64h.07Z"/><path class="cls-3" d="M195.41,278.74c.58-.08,1.16-.15,1.75-.19.21-.02.41-.09.63-.09.76-.03,1.52.16,2.23.31.31.07.63.1.93.2.19.06.39.12.58.17.19.07.37.16.55.25.11.06.07.14-.06.23-.13.08-.34.22-.56.24-.39.01-.77.2-1.13.22-.36.03-.71.05-1.07.04-.43-.02-.86.17-1.29.25-.48.1-.96.2-1.44.35-.3.09-.6.19-.89.28-.45.15-.92.29-1.34.53-.33.19-.58.5-.86.76-.06.06-.11.13-.18.18-.25.18-.41.09-.76-.42l-.23-.35c-.25-.4-.32-.8-.18-1.04.41-.68,1.03-1.08,1.71-1.41.51-.23,1.04-.46,1.61-.57l.02.05Z"/><path class="cls-3" d="M337.18,269.79c-.22,1.3-.47,2.6-.75,3.9-.1.48-.15.97-.29,1.45-.3.86-.38,1.68-1.29,2.69-.82.72-1.74,1.03-2.63,1.21-.79.16-1.58.2-2.34.2-.98,0-1.98-.1-2.85-.64-.26-.19-.24-.11.03-.17.28-.1.77-.31,1.29-.41.92-.12,1.82-.2,2.65-.43.82-.21,1.63-.39,2.22-.78.18-.1.34-.27.37-.37.04-.03.08-.14.11-.27.03-.11.08-.22.12-.34.14-.52.24-1.07.36-1.63.24-1.23.44-2.51.61-3.79l.29-2.37c.13-1.2.28-2.41.31-3.62,0-.94-.03-1.86-.02-2.79,0-.2-.02-.41.04-.61.16-.76.35-1,.73-1.13.09-.03.17-.08.25-.09.27-.06.5.27.7.84.59,1.68.68,3.45.53,5.21-.08,1.31-.22,2.63-.38,3.94h-.06Z"/><path class="cls-3" d="M336.78,277.58c-.08-.78-.15-1.55-.13-2.32,0-.28-.01-.56,0-.84.06-.99.15-1.97.27-2.93.05-.43.09-.86.13-1.28.06-.54.15-1.09.28-1.62.04-.17.07-.14.1,0,.03.15.08.42.09.73.03,1.11.08,2.21.06,3.31-.02.66.1,1.34.18,2.01.09.73.18,1.47.27,2.2.07.45.14.9.25,1.34.15.67.32,1.34.58,1.97.23.48.48.93.73,1.38.05.1.12.19.15.3.13.41.1.59-.09.8-.04.05-.08.1-.12.14-.14.13-.38.06-.67-.16-.87-.67-1.39-1.66-1.65-2.69-.21-.77-.36-1.55-.47-2.33h.03Z"/><path class="cls-3" d="M338.06,190.5l.28,22.16c.03,2.7.14,5.39.14,8.08.02,9.5-.08,19-.26,28.51-.07,4.21-.08,8.46-.18,12.64-.09,2.69-.1,5.38-.29,8.07-.08,1.34-.19,2.69-.34,4.03l-.52,4.01c-.23,1.66-.3,1.44-.53,0-.13-.78-.3-1.78-.49-2.95-.1-.61-.23-1.28-.3-1.98-.06-.7-.12-1.45-.14-2.22-.34-10.95.1-21.87.33-32.92.18-6.6-.06-13.48-.14-20.24-.11-7.43-.22-14.87-.33-22.3-.1-4.58-.19-9.15-.29-13.73-.17-6.93-.31-13.89-.58-20.77-.2-5.35-.57-10.58-.85-15.86-.06-1.16-.15-2.3-.2-3.47-.16-4.35,0-5.74.77-6.7.18-.22.35-.5.53-.63.6-.43,1.15,1.33,1.41,4.51.77,9.43,1.14,19.38,1.46,29.38.19,7.43.39,14.9.58,22.35h-.07Z"/><path class="cls-3" d="M304.89,277.68c5.31-.13,10.62-.25,15.95-.31,2.67-.05,5.34.02,8.02.08,1.35.04,2.69.11,4.07.19.69.05,1.39.11,2.12.21.18.02.38.07.57.1.2.03.36.07.7.17.31.07.55.23.82.35.13.07.24.18.36.26.15.05.22.19.34.28l1.13,1.42.97,1.27,1.9,2.54,3.72,5.1c3.18,4.38,6.39,8.74,9.52,13.15,10.99,15.58,21.78,31.29,32.51,47.03,4.79,6.97,9.6,13.97,14.36,20.89,3.04,4.45,6.09,8.9,9.14,13.36,2.98,4.5,5.86,9.07,8.57,13.74,1.51,3.03,1.3,2.63-.74.57-1.03-1.02-2.39-2.54-4.04-4.37-1.62-1.85-3.42-4.09-5.26-6.58-12.59-18.04-24.87-36.26-37.28-54.65-7.41-11-15.51-22.18-23.41-33.21l-6.61-9.15-3.34-4.54-1.69-2.24c-.28-.37-.56-.76-.85-1.1l-.77-.96c-.05-.08-.13-.13-.21-.16-.1-.04-.11-.04-.34-.09-.38-.08-.81-.13-1.24-.18-.87-.09-1.78-.14-2.68-.18-1.82-.05-3.65-.06-5.49-.05l-11.06.16c-9.18.23-18.37.46-27.55.68-13.91.34-27.9.53-41.72.5-10.75-.02-21.29-.05-31.93-.6-2.34-.12-4.64-.24-7-.43-8.75-.76-11.5-1.5-13.23-2.64-.39-.27-.92-.55-1.13-.79-.71-.83,2.86-.74,9.19-.24,18.79,1.42,38.75,1.53,58.78,1.34,14.88-.17,29.84-.57,44.79-1l.02.08Z"/><path class="cls-3" d="M405.9,410.6c9.67-4.62,18.76-10.46,26.96-17.35,4.13-3.42,7.94-7.2,11.59-11.12,3.62-3.96,6.93-8.18,10.05-12.54,12.29-17.63,19.92-38.32,23.41-59.57,1.14-7.77,1.99-15.62,1.92-23.49.14-3.93-.2-7.85-.33-11.78-.15-1.96-.38-3.91-.57-5.86l-.29-2.93-.45-2.91c-2.05-13.69-5.8-27.18-11.57-39.79-5.7-12.63-13.04-24.57-22.1-35.09l-3.4-3.94-3.61-3.75-1.81-1.87c-.61-.62-1.27-1.19-1.9-1.78l-3.82-3.53c-1.28-1.17-2.66-2.22-3.99-3.34-1.36-1.08-2.64-2.26-4.07-3.24-2.81-2.03-5.56-4.16-8.53-5.97-1.47-.93-2.91-1.9-4.39-2.8l-4.54-2.56-2.27-1.28-2.34-1.15-4.68-2.28c-1.57-.74-3.2-1.35-4.79-2.04l-2.41-1-1.2-.5-1.23-.43-4.93-1.7c-.82-.27-1.63-.59-2.47-.83l-2.51-.7c-11.85-3.43-24.18-5.3-36.53-5.66-12.35-.37-24.74.58-36.77,2.89-7.71,1.56-15.31,3.67-22.72,6.34-1.84.71-3.65,1.47-5.47,2.21-.91.38-1.83.72-2.72,1.13l-2.66,1.27-2.67,1.26c-.89.42-1.79.82-2.64,1.32l-5.17,2.85c-.43.24-.87.47-1.29.72l-1.24.79-2.49,1.59c-1.66,1.06-3.34,2.08-4.9,3.29l-4.76,3.48c-1.55,1.21-3.03,2.51-4.54,3.76l-2.26,1.89c-.74.65-1.43,1.35-2.15,2.02l-4.27,4.07-4.05,4.29-2.03,2.15c-.68.72-1.27,1.51-1.91,2.25-6.32,7.52-5.77,6.36-1.07-.63.6-.86,1.2-1.88,1.99-2.86.78-1,1.63-2.08,2.53-3.23.91-1.15,1.85-2.41,2.94-3.64,1.13-1.2,2.32-2.46,3.57-3.78,2.43-2.72,5.47-5.25,8.58-8.08,1.61-1.35,3.36-2.63,5.11-3.99.89-.66,1.75-1.39,2.71-2.01.95-.62,1.91-1.25,2.88-1.89l2.58-1.68,1.3-.84,1.34-.76,5.38-3.03c1.81-.97,3.69-1.81,5.54-2.73.92-.45,1.85-.9,2.79-1.33l2.86-1.16,2.86-1.16c.95-.38,1.9-.79,2.88-1.1l5.84-1.97c1.95-.66,3.95-1.12,5.93-1.7l2.97-.82,3.01-.66c8-1.88,16.17-2.96,24.35-3.56,2.05-.11,4.09-.32,6.14-.36l6.15-.13c2.05-.02,4.11.1,6.16.15,2.05.08,4.11.07,6.16.31l6.14.56c1.03.07,2.04.24,3.06.4l3.05.47c4.09.52,8.09,1.52,12.12,2.36,2.01.47,3.97,1.08,5.96,1.62l2.98.83c.99.29,1.95.66,2.93.99l5.84,2.03,5.71,2.38c7.54,3.31,14.91,7.12,21.76,11.73l2.6,1.68c.85.59,1.67,1.21,2.51,1.82,1.66,1.23,3.35,2.41,4.97,3.69l4.77,3.95,1.19.99,1.14,1.05,2.27,2.11c7.22,6.75,13.85,14.26,19.71,22.4,5.9,8.13,10.9,16.96,15.07,26.18,4.16,9.23,7.42,18.89,9.71,28.78l.81,3.72c.27,1.24.56,2.47.73,3.73.39,2.5.82,5,1.18,7.51.26,2.52.51,5.04.77,7.55.2,2.52.25,5.05.38,7.57.31,11.09-.56,22.21-2.57,33.12l-.75,4.09c-.27,1.36-.64,2.7-.95,4.05-.67,2.69-1.25,5.4-2.09,8.05-1.49,5.34-3.43,10.55-5.49,15.7-2.16,5.11-4.55,10.13-7.28,14.97-2.77,4.81-5.7,9.55-9.07,13.97-3.33,4.44-6.89,8.73-10.8,12.68l-1.44,1.5-1.51,1.44c-1.01.95-2,1.93-3.03,2.85-2.1,1.82-4.17,3.67-6.38,5.35-10.73,8.47-22.8,15.2-35.56,20.03-6.37,2.43-12.9,4.43-19.52,6.03-6.63,1.58-13.35,2.72-20.1,3.54-40.87,5.88-84.17-5.83-116.01-31.69-12.36-10.03-22.88-22.15-30.76-35.8-3.96-6.81-7.3-13.96-10.06-21.33-2.71-7.39-4.74-15.01-6.32-22.74-1.3-6.85-2.03-13.63-2.31-20.63-.24-6.49-.06-11.88.25-16.38.29-4.51.82-8.12,1.3-11.09,1.05-5.93,2.22-9.27,3.49-11.79.53-1.17,1.36-2.64,1.79-3.25.38-.51.47-.26.3.66-.08.46-.24,1.08-.43,1.86-.17.79-.38,1.76-.62,2.88-.87,4.5-2.03,11.65-2.49,20.96-.37,6.89-.3,13.86.24,20.82.55,6.97,1.5,13.89,3.23,20.73.72,3.45,1.82,6.82,2.76,10.22,1.17,3.34,2.2,6.73,3.6,10,1.25,3.32,2.82,6.52,4.31,9.75l2.49,4.73c.4.8.85,1.57,1.31,2.33l1.37,2.3c3.7,6.1,7.9,11.93,12.58,17.37,4.72,5.41,9.9,10.44,15.47,15.03,11.14,9.18,23.82,16.57,37.3,21.99,5.01,2.02,10.14,3.73,15.33,5.24,5.2,1.48,10.48,2.65,15.81,3.58,5.32.93,10.71,1.52,16.09,1.79,1.35.1,2.69.11,4.04.14,1.34.04,2.7.04,4.06,0l4.08-.06,4.07-.18c10.86-.49,21.66-1.98,32.23-4.43,5.27-1.28,10.5-2.71,15.6-4.54,2.58-.83,5.07-1.9,7.6-2.86,2.47-1.1,4.99-2.11,7.39-3.34l.09.06Z"/><path class="cls-3" d="M106.62,148.18c2.02,1.73,4.69,2.3,7.29,1.92,2.35-.34,4.93-1.7,5.96-3.94.31-.67.19-1.48-.49-1.88-.59-.35-1.57-.18-1.88.49-.37.8-.87,1.31-1.62,1.75s-1.63.76-2.56.9c.2-.03-.34.03-.42.03-.23.01-.45.02-.68.01-.51-.01-.76-.04-1.2-.12-.93-.19-1.77-.52-2.46-1.11-.56-.48-1.39-.55-1.94,0-.49.49-.57,1.46,0,1.94h0Z"/><path class="cls-3" d="M126.76,142.81c-.1.18-.21.35-.33.52-.12.18.09-.1-.05.07-.05.07-.11.13-.17.2-.13.14-.27.28-.41.41-.06.06-.13.11-.19.17.1-.08,0,0-.04.03-.15.1-.3.2-.46.29-.07.04-.14.08-.21.11-.02,0-.23.11-.12.06.13-.06-.15.06-.17.06-.07.02-.14.05-.22.07-.2.06-.4.11-.6.15-.02,0-.25.05-.17.03s-.15.02-.17.02c-.2.02-.4.03-.61.03-.18,0-.35-.01-.53-.02-.06,0-.2-.02-.06,0-.11-.02-.21-.04-.32-.06-.17-.03-.33-.08-.5-.13-.1-.03-.2-.07-.3-.1-.07-.02-.16-.08-.04-.02-.15-.07-.29-.14-.43-.23-.09-.05-.17-.11-.25-.16-.17-.12.21.18-.07-.06-.51-.44-1.26-.5-1.77,0-.45.45-.52,1.33,0,1.77,1.6,1.37,3.71,1.73,5.75,1.37s3.63-1.6,4.6-3.32c.33-.59.14-1.37-.45-1.71s-1.38-.14-1.71.45h0Z"/><path class="cls-3" d="M104.11,140.81c.1-.16.2-.31.31-.45-.07.1-.06.07,0,0,.06-.07.12-.14.18-.21.22-.25.46-.48.71-.7.07-.06.14-.12.21-.18-.14.11-.02.02.05-.04.13-.1.27-.19.41-.28.3-.19.6-.35.92-.5.02-.01.23-.1.1-.05-.15.06.13-.05.16-.06.16-.06.31-.11.47-.16.34-.1.68-.18,1.02-.24.13-.02.11-.01,0,0,.09,0,.18-.02.27-.03.16-.01.33-.02.5-.02.37,0,.73.02,1.1.07.65.09,1.28-.64,1.25-1.25-.03-.75-.55-1.16-1.25-1.25-3.34-.45-6.77,1.28-8.58,4.08-.35.55-.13,1.4.45,1.71.62.33,1.33.14,1.71-.45h0Z"/><path class="cls-3" d="M126.43,133.46c-2.81-1.49-6.22-1.48-9.02.02-.58.31-.8,1.16-.45,1.71.38.59,1.09.78,1.71.45,1.97-1.06,4.52-1.07,6.5-.02.58.31,1.39.17,1.71-.45.31-.58.17-1.38-.45-1.71h0Z"/><path class="cls-3" d="M114.86,162.72c1.84,2.7,5.93,3.62,8.64,1.63.52-.39.84-1.1.45-1.71-.33-.52-1.15-.86-1.71-.45-.24.18-.49.32-.76.46s.25-.08-.03.01c-.07.02-.14.05-.21.07-.14.05-.28.08-.43.11-.07.02-.14.03-.22.04-.23.05.18,0,.03,0-.15,0-.29.03-.44.03-.16,0-.33,0-.49-.01-.06,0-.12-.01-.18-.02-.3-.02.28.06-.02,0s-.58-.12-.86-.22c-.07-.02-.14-.05-.21-.08-.15-.05.22.11.01,0-.13-.07-.26-.13-.39-.21s-.25-.16-.37-.24c-.25-.16.2.18-.03-.02-.05-.05-.11-.1-.17-.15-.11-.1-.21-.2-.31-.32-.05-.05-.11-.11-.14-.17.09.17.07.09-.01-.03-.37-.54-1.12-.83-1.71-.45-.54.35-.84,1.13-.45,1.71h0Z"/><path class="cls-3" d="M121.54,147.39c.26.58.51,1.18.83,1.75.12.21.28.37.4.58.41.73.85,1.46,1.37,2.13.23.29.5.56.77.81.18.16.37.3.54.46.16.18.27.42.39.66.06.16-.09.33-.38.49-.28.15-.74.34-1.08.28-.48-.24-.92-.54-1.33-.88-.39-.36-.71-.79-.98-1.25-.32-.56-.84-.97-1.24-1.48-.42-.57-.81-1.16-1.17-1.77-.23-.37-.41-.77-.62-1.14-.3-.58-.56-1.19-.89-1.74-.26-.43-.64-.8-.94-1.22-.06-.09-.14-.18-.19-.28-.17-.38-.06-.57.52-.89.13-.07.26-.15.4-.22.45-.22.91-.23,1.18-.04.4.28.72.58.95.94.25.34.45.72.65,1.09.29.56.57,1.13.88,1.68l-.05.04Z"/><path class="cls-3" d="M353.09,90.24c1.54,1.97,4.8,2.39,6.79.89.24-.18.43-.37.52-.67.07-.27.04-.63-.11-.87-.3-.46-1.04-.78-1.54-.4-.19.14-.39.27-.6.37-.05.02-.19.13-.06.03s0,0-.06.02c-.11.04-.22.07-.34.1-.08.02-.28.02-.35.07.06-.04.26-.02.05-.01-.06,0-.12,0-.18.01-.12,0-.24,0-.36,0-.1,0-.26-.05-.36-.03.05-.01.24.04.09,0-.07-.01-.14-.03-.21-.04-.12-.03-.23-.06-.34-.09-.05-.01-.09-.03-.13-.05-.03-.01-.07-.02-.1-.04-.08-.03-.04-.02.1.05-.03-.06-.22-.11-.29-.14-.1-.06-.21-.12-.3-.18-.01,0-.13-.11-.15-.1.04-.02.18.16.03.02-.19-.17-.36-.34-.51-.54-.36-.47-1.21-.41-1.59,0-.45.49-.39,1.09,0,1.59h0Z"/><path class="cls-3" d="M323.35,74.4c-.24.01-.24-.3-.11-.8.04-.16.29-.56.38-.59.16-.06.33-.11.47-.14.09-.01,1.16.31,1.55.39.37.08.69.23,1.01.4l1.96.98c.14.07.27.17.39.29.39.42.88.69,1.39.91.09.04.16.1.29.05.22-.08,1.53.66,1.65.83.32.41.67.75,1.01,1.13.05.05.13.06.12.19-.02.32.13.35.25.45.16.13.32.27.45.46.06.09.07.29.08.45.02.15-.25.5-.3.52-.15.07-.19.28-.28.44-.03.05-.07.12-.1.16-.07.09-1.46.1-1.57.03-.01,0-.42-.19-.84-.39-.43-.19-.87-.39-.97-.42-.1-.03-.16-.14-.22-.23-.04-.03-1.33-.59-1.36-.64-.22-.19-.52-.26-.63-.62-.02-.07-.08-.09-.13-.12-.43-.24-.8-.6-1.18-.92-.2-.16-.42-.28-.63-.42-.04-.03-.06-.08-.09-.12-.04-.05-.07-.1-.12-.13-.51-.31-.95-.74-1.5-.99-.13-.06-.55-.63-.7-.68-.08-.03-.15-.48-.25-.47Z"/><path class="cls-3" d="M321.57,85.81c-.13.16-.28-.11-.46-.62-.06-.16-.11-.67-.08-.75.07-.15.14-.3.22-.41.05-.07.88-.44,1.18-.58.28-.14.57-.19.86-.23.59-.06,1.18-.14,1.77-.18.13,0,.26.01.39.06.45.17.89.18,1.35.13.08,0,.15.01.23-.09.13-.17,1.36-.13,1.52-.04.37.22.75.39,1.12.59.05.03.12,0,.15.13.07.3.2.27.31.31.16.05.32.13.46.25.07.06.12.24.18.38.05.13-.07.55-.1.59-.1.12-.07.33-.1.51,0,.06-.02.14-.03.19-.03.11-1.03.69-1.12.67,0,0-.09,0-.22,0-.13,0-.29.01-.47.02-.35.02-.7.03-.78.05-.08.02-.15-.06-.22-.11-.03-.03-1.06.08-1.1.07-.21-.05-.42.03-.62-.22-.04-.05-.08-.04-.13-.04-.36.01-.73-.1-1.09-.17-.19-.04-.37,0-.56-.02-.03,0-.07-.04-.1-.05-.04-.02-.09-.05-.13-.05-.44.02-.9-.09-1.33.02-.1.02-.61-.2-.73-.16-.06.02-.32-.32-.37-.25Z"/><path class="cls-3" d="M337.79,64.67c-.06-.16.14-.29.42-.41.09-.04.35-.04.39,0,.09.09.19.17.27.26.02.03.13.26.27.51.12.26.22.55.3.69.13.28.2.57.26.85l.2,1.74c.01.13,0,.26-.03.39-.12.44-.1.88-.02,1.32.01.07,0,.15.1.22.15.11.28,1.31.21,1.47-.17.39-.26.78-.4,1.16-.02.06.02.11-.09.17-.26.12-.21.24-.24.36-.04.17-.09.33-.19.5-.05.08-.19.17-.31.25-.1.07-.47.04-.51.02-.12-.07-.29,0-.44,0-.05,0-.12,0-.16,0-.06,0-.88-.94-.85-1.05,0-.01-.05-.36-.11-.73-.06-.36-.12-.73-.14-.83-.02-.08.04-.17.08-.25.02-.04-.14-1.15-.13-1.19.04-.23-.04-.46.18-.69.04-.05.03-.09.03-.14-.02-.4.08-.79.15-1.19.03-.2.02-.4.03-.61,0-.04.03-.07.05-.11.02-.05.05-.09.05-.14-.01-.48.14-.96.12-1.44,0-.11.23-.64.25-.77.01-.07.3-.31.26-.37Z"/><path class="cls-3" d="M122.99,235.5c-.08-1.81-.18-3.62-.32-5.43-.05-.66-.16-1.31-.21-1.97-.17-2.33-.34-4.66-.58-6.98-.11-1.03-.23-2.06-.37-3.08l-.27-1.97c-.11-.65-.05-1.33-.07-2,0-.42.1-.38.32-.06.19.32.65.9.87,1.64.31,1.32.6,2.64.85,3.97.23,1.33.38,2.68.5,4.04.13,1.63.48,3.29.7,4.94.24,1.82.45,3.64.65,5.46l.34,3.37c.16,1.7.27,3.42.47,5.1.16,1.31.43,2.59.59,3.89.04.29.1.56.12.85.1,1.07-.15,1.43-.66,1.69-.12.06-.24.14-.36.17-.4.12-.8-.29-1.07-1.05-.3-1.14-.56-2.31-.76-3.49-.16-1.19-.28-2.4-.39-3.62-.15-1.81-.32-3.63-.43-5.45h.06Z"/><path class="cls-3" d="M130.81,231.46c-.14.16-.3.31-.49.43-.18.12-.43.21-.55.24-.3.07-.61.05-.9,0-.21-.04-.42-.08-.61-.21-.5-.34-.83-.87-.92-1.41-.02-.18,0-.36,0-.52.02-.15.01-.3.06-.44.02-.12.05-.23.08-.35.08-.28.19-.59.51-.71.1-.04.25.11.41.3.15.19.37.43.38.53-.01.15,0,.28,0,.38,0,.04-.08.03-.11.1-.04.03-.04.05-.06.08-.06.16.07.2.14.26.05.04.11.08.18.1.04.01.07.02.11.02.03,0,.02,0,.02.01h0s.05.08.05.08h0s0,0,0,0h0s0,0,0,0l-.02-.02c-.05-.04.06-.02.07-.09.02-.04.03-.08.04-.1-.02,0,.1-.09.04-.03v-.27s.02,0,.02,0c.02-.04-.03.04,0,.14.01.1.05.13,0,.08-.02-.02-.05-.05-.08-.07-.16-.07-.05-.04-.16-.04-.14.02-.28.05-.41.09-.23.06-.45.1-.64.01-.19-.08-.33-.3-.31-.58.06-.63.42-1.08.9-1.33.25-.13.56-.21.93-.18.37.03.8.21,1.11.51l-.35-.26c.32.17.61.44.79.74.29.48.33.97.28,1.38-.06.42-.2.79-.46,1.14l-.04-.03Z"/><path class="cls-3" d="M129.21,224.62c-.72.3-1.35.2-1.87-.03-.19-.09-.39-.15-.56-.3-.29-.25-.5-.63-.55-.97-.05-.35,0-.66.09-.93.08-.24.17-.45.29-.65.14-.25.37-.51.7-.54.1,0,.17.19.23.42.06.22.16.46.16.53-.05.26.04.44-.05.55-.03.1.04.06.1.09.06.04.19.08.27.07.05,0,.08,0,.1-.01.01.03.08-.07-.01-.16-.04-.02-.11-.03-.17,0-.02,0-.09.08-.05.04.02-.02.05-.07.06-.09.01-.03.03-.06.03-.07.01-.05,0-.03,0-.05,0,0,0,.03,0-.01,0-.1-.02-.23-.04-.37l-.07-.4c-.1-.43-.03-.87.36-1.03.28-.11.59-.14.9-.09.27.1.51.25.69.44.38.38.59.86.63,1.42.03.41-.05.88-.29,1.29-.24.42-.57.7-.93.88l-.03-.04Z"/></svg>